<svg xmlns="http://www.w3.org/2000/svg" width="1024" height="1024" viewBox="0 0 1024 1024" fill="none">
  <rect x="112" y="112" width="800" height="800" rx="176" fill="#B13A2F"/>
  <g transform="translate(272 272) scale(20)" stroke="#FFFDF9" stroke-width="2" stroke-linecap="round" stroke-linejoin="round">
    <path d="M21.54 15H17a2 2 0 0 0-2 2v4.54"/>
    <path d="M7 3.34V5a3 3 0 0 0 3 3 2 2 0 0 1 2 2c0 1.1.9 2 2 2a2 2 0 0 0 2-2c0-1.1.9-2 2-2h3.17"/>
    <path d="M11 21.95V18a2 2 0 0 0-2-2 2 2 0 0 1-2-2v-1a2 2 0 0 0-2-2H2.05"/>
    <circle cx="12" cy="12" r="10"/>
  </g>
</svg>
